<?xml version="1.0" encoding="UTF-8"?>
<svg id="Layer_1" xmlns="http://www.w3.org/2000/svg" version="1.1" viewBox="0 0 753 135">
  <!-- Generator: Adobe Illustrator 29.0.0, SVG Export Plug-In . SVG Version: 2.1.0 Build 186)  -->
  <path d="M181.4,26.7c-4.9,0-9.6,1-13.9,3-3.8,1.8-7,4.5-9.4,8.1-1.9-3.5-4.6-6.2-8.1-8-3.9-2.1-8.8-3.1-14.5-3.1s-6.2.4-9.1,1.3c-2.9.9-5.5,2.2-7.9,4-1.7,1.2-3.2,2.7-4.4,4.4l-1.6-8.4h-13.1v30.1h16.5l.2-1.2c.3-2.2.7-4.2,1.3-6,1.1-3.5,2.9-6.1,5.3-7.8,2.4-1.7,5.8-2.6,10-2.6s5.3.6,7.1,1.7c1.8,1.1,3.2,2.7,4.1,5,1,2.3,1.5,5.3,1.5,8.9v2.2h16.3v-1.3c.7-4.7,1.9-8.4,4-11.1,2.6-3.6,7-5.3,13.1-5.3s7.3,1.2,9.4,3.7c2.1,2.5,3.2,6.5,3.2,11.8v2.2h16.1v-3.8c0-9.5-2.2-16.5-6.6-20.9-4.4-4.4-10.9-6.7-19.3-6.7Z"/>
  <rect x="191.3" y="73.1" width="16.1" height="29.7"/>
  <rect x="145.3" y="73.1" width="16.1" height="29.7"/>
  <path d="M277,74.2c-.4,1.8-.7,3.2-1.1,4.5-1.2,3.7-3.2,6.7-5.7,8.7-2.5,2-5.6,3-9.4,3s-8.1-1-10.7-2.8c-2.6-1.9-4.5-4.6-5.6-8.2-.4-1.4-.8-3.1-1.1-5.1l-.2-1.2h-16.7v61.6h16.2v-30.8c0-1.8,0-3.8-.3-6.2,0-.8-.1-1.6-.2-2.3,1,1,2,2,3.2,3,2.1,1.7,4.7,3.1,7.7,4.2,3,1,6.4,1.6,10.3,1.6,6.2,0,11.7-1.5,16.3-4.5,4.7-3,8.3-7.4,10.9-13.2,1.4-3.3,2.5-7.1,3.1-11.6l.2-1.6h-16.7l-.2,1.2Z"/>
  <path d="M286,36.5c-5.6-6.5-13.1-9.8-22.3-9.8s-7.6.5-10.6,1.6c-3,1.1-5.6,2.6-7.8,4.5-1.4,1.2-2.6,2.6-3.8,4l-1.5-8.8h-13.6v30.1h16.6l.2-1.2c.4-2.6.9-4.8,1.5-6.6,1.2-3.2,3.1-5.7,5.6-7.3,2.6-1.6,6-2.5,10.4-2.5s10.1,2.1,12.8,6.3c1.7,2.6,2.9,6,3.6,10.2l.2,1.2h16.7l-.2-1.6c-1-8.4-3.6-15.1-7.8-20Z"/>
  <path d="M363.6,73.1h-16.6l.2,1.6c0,.6.1,1.3.1,1.9,0,2.7-.7,5.1-2,7-1.4,1.9-3.4,3.5-6.2,4.5-2.8,1.1-6.4,1.7-10.6,1.7s-9.8-.6-14.5-1.9c-4.7-1.3-8.9-2.6-12.5-4.1l-2-.8v15.7l.8.4c2.3,1.1,4.9,2,7.8,2.7,2.8.7,5.9,1.3,9.2,1.6,3.3.4,6.8.6,10.4.6,7.2,0,13.6-1.1,18.9-3.3,5.4-2.2,9.6-5.5,12.6-9.7,3-4.3,4.5-9.4,4.5-15.3s0-.5,0-.8v-1.7Z"/>
  <path d="M53.8,4.2h-15.9l-20.8,53.9h16.5l8.9-24.4c.4-1,.8-2.4,1.4-4.2.5-1.7,1.1-3.6,1.7-5.6,0-.3.1-.5.2-.7,0,0,0,.1,0,.2.6,2.1,1.3,4,1.9,6,.6,1.9,1.1,3.3,1.4,4.3l8.8,24.4h16.4L53.8,4.2Z"/>
  <path d="M308,48.5c2.3,2.3,5,4.3,8.1,6,2.1,1.2,4.6,2.3,7.6,3.5h33.9c0,0-3.3-2.5-3.3-2.5-.9-.7-1.9-1.4-3-2.1-3.9-2.4-8.7-4.7-14.3-6.8-4.8-1.8-8.7-3.6-11.7-5.2-2.8-1.5-4.9-3.2-6.2-5.1-1.2-1.8-1.9-4.1-1.9-6.9s.6-4.6,1.8-6.3c1.2-1.7,2.9-3.1,5.2-4.1,2.4-1,5.4-1.5,8.9-1.5s7.7.5,11.4,1.4c3.7.9,7.4,2.2,11.1,3.6l1.4.6,5.3-13.7-1.3-.5c-4.1-1.8-8.4-3.2-12.9-4.2-4.5-1-9.4-1.5-14.6-1.5s-12.1,1-16.9,3.1c-4.9,2.1-8.9,5.1-11.6,9.1-2.8,4-4.2,8.8-4.2,14.3s.6,7.6,1.9,10.7c1.2,3.1,3.1,5.8,5.4,8.1Z"/>
  <polygon points="0 102.8 17.2 102.8 28.2 73.1 11.4 73.1 0 102.8"/>
  <path d="M424.8,74.2c-.4,1.9-.8,3.5-1.2,4.8-1.3,3.7-3.4,6.5-6.1,8.5-2.7,1.9-6.3,2.9-10.6,2.9s-7.9-1-10.7-2.9c-2.7-1.9-4.8-4.8-6.1-8.5-.5-1.3-.9-2.9-1.2-4.8l-.2-1.2h-16.6l.3,1.7c.4,2.5,1,4.8,1.7,6.8,1.7,4.8,4.1,8.9,7.2,12.2,3.1,3.3,6.9,5.9,11.2,7.6,4.3,1.7,9,2.6,14.1,2.6s10.4-.9,14.7-2.6c4.4-1.7,8.1-4.3,11.2-7.6,3.1-3.3,5.5-7.5,7.1-12.2.7-2.1,1.2-4.3,1.7-6.8l.3-1.7h-16.7l-.2,1.2Z"/>
  <rect x="99.4" y="73.1" width="16.2" height="29.7"/>
  <polygon points="63 73.1 74.2 102.8 91.5 102.8 80.2 73.1 63 73.1"/>
  <rect x="524.6" y="28.1" width="16.2" height="30.1"/>
  <polygon points="636.5 58.2 652.8 58.2 652.8 41.1 673.8 41.1 673.8 28.1 652.8 28.1 652.8 11.8 637.9 11.8 637.8 28.1 626.4 28.1 626.4 41.1 636.5 41.1 636.5 58.2"/>
  <path d="M667.6,90.1c-1.9.3-3.7.5-5.5.5-2.9,0-5.1-.8-6.8-2.6-1.7-1.7-2.5-4.4-2.5-8.1v-6.9h-16.2v7.1c0,6,1,10.8,3.1,14.3,2.1,3.5,4.9,6.1,8.4,7.5,3.4,1.4,7.2,2.1,11.3,2.1s5.3-.3,7.9-.7c2.6-.5,4.7-1.1,6.3-1.7l.9-.4v-13.1l-2,.7c-1.3.5-2.9.9-4.8,1.2Z"/>
  <path d="M616.4,42.9c-2.5-5.1-6.2-9.1-11-11.9-4.7-2.8-10.5-4.2-17-4.2s-12.9,1.6-18,4.7c-5.1,3.1-9.1,7.7-11.9,13.5-1.6,3.3-2.7,7-3.4,11.5l-.3,1.7h16.3l.2-1.3c.7-5.4,2.4-9.5,5.1-12.4,3-3.2,6.9-4.7,11.9-4.7s6.5.8,8.8,2.3c2.2,1.5,3.9,3.7,5,6.4.9,2.2,1.5,4.9,1.7,8.3v1.4h16.3v-1.6c-.6-5.2-1.8-9.8-3.7-13.7Z"/>
  <polygon points="718.9 80 716.3 73 700.7 73 711.3 101.5 699.4 135 714.5 135 736.8 73 721.4 73 718.9 80"/>
  <path d="M603.7,89.3c-3.5.8-7.5,1.3-12,1.3-6.5,0-11.6-1.9-15.2-5.7-2.5-2.6-4.1-6.2-5-10.6l-.2-1.2h-16.5l.3,1.7c.8,4.7,2,8.7,3.9,12.1,3.1,5.7,7.4,10,13,12.9,5.5,2.9,12,4.3,19.2,4.3s9.7-.4,13.5-1.2c3.8-.8,7.6-2,11.3-3.7l.9-.4v-14.2l-2,.9c-3.8,1.6-7.5,2.9-11,3.7Z"/>
  <polygon points="699.7 28.1 684 28.1 695.2 58.2 710.8 58.2 699.7 28.1"/>
  <path d="M500.4,28c-3.5-.8-7.4-1.2-11.5-1.2-6.9,0-13.2,1.4-18.6,4.1-5.5,2.8-9.8,7.1-12.9,12.9-1.8,3.4-3.1,7.7-3.9,12.7l-.3,1.6h16.6l.2-1.2c.4-2.1.9-3.8,1.4-5.2,1.4-3.6,3.5-6.4,6.4-8.2,4.3-2.9,10.9-3.7,18.5-1.7,2.8.7,5.4,1.6,7.8,2.5l1.4.5,4.9-13.2-1.1-.6c-2.4-1.2-5.4-2.3-9-3Z"/>
  <path d="M437.8,44.6c-2.9-5.7-7.1-10.2-12.4-13.2-5.3-3-11.5-4.6-18.4-4.6s-13.6,1.5-18.9,4.5c-5.3,3-9.4,7.5-12.3,13.3-1.7,3.4-2.8,7.3-3.5,11.9l-.3,1.6h16.6l.2-1.2c.8-4.2,2-7.6,3.8-10.2,3-4.2,7.6-6.3,14.1-6.3s8,1,10.7,2.9c2.7,1.9,4.7,4.7,6,8.3.5,1.5,1,3.2,1.3,5.3l.2,1.2h16.6l-.3-1.6c-.7-4.6-2-8.6-3.7-11.9Z"/>
  <path d="M498.3,88.9c-3,.8-6.4,1.2-10.1,1.2s-7.6-.9-10.3-2.8c-2.7-1.8-4.8-4.5-6.2-8.1-.5-1.4-1-3-1.4-5l-.2-1.2h-16.7l.2,1.6c.7,4.9,1.9,9,3.6,12.4,2.9,5.7,7,10,12.3,12.8,5.2,2.8,11.3,4.2,18.3,4.2s8.3-.3,11.5-1.1c3.2-.7,6.2-1.8,8.8-3.3l.8-.4v-14.8l-2.1,1.1c-2.5,1.3-5.3,2.4-8.3,3.2Z"/>
  <rect x="524.6" y="73.1" width="16.2" height="29.7"/>
  <polygon points="737.5 28.1 726.7 58.2 742.1 58.2 753 28.1 737.5 28.1"/>
  <path d="M532.6,0c-5.7,0-10.3,4.5-10.3,10.2s4.6,10.2,10.3,10.2,10.3-4.5,10.3-10.2-4.6-10.2-10.3-10.2Z"/>
</svg>